<svg xmlns="http://www.w3.org/2000/svg" viewBox="0 0 128 128" role="img" aria-labelledby="title desc">
  <title id="title">fiction_architect icon</title>
  <desc id="desc">A stylized book, blueprint grid, and architectural arch for fiction planning.</desc>
  <defs>
    <linearGradient id="cover" x1="20" y1="18" x2="110" y2="114" gradientUnits="userSpaceOnUse">
      <stop stop-color="#14b8a6"/>
      <stop offset="0.55" stop-color="#0f766e"/>
      <stop offset="1" stop-color="#0f172a"/>
    </linearGradient>
    <linearGradient id="page" x1="35" y1="30" x2="92" y2="100" gradientUnits="userSpaceOnUse">
      <stop stop-color="#ffffff"/>
      <stop offset="1" stop-color="#dbeafe"/>
    </linearGradient>
  </defs>
  <rect width="128" height="128" rx="28" fill="#111827"/>
  <path d="M25 28c0-5 4-9 9-9h48c14 0 25 11 25 25v57c0 5-4 9-9 9H34c-5 0-9-4-9-9V28Z" fill="url(#cover)"/>
  <path d="M42 30h38c9 0 16 7 16 16v49c0 3-3 5-6 4l-22-7-23 7c-3 1-6-1-6-4V33c0-2 1-3 3-3Z" fill="url(#page)"/>
  <path d="M55 49h25M55 62h29M55 75h19" stroke="#0f766e" stroke-width="5" stroke-linecap="round"/>
  <path d="M38 97 67 60l29 37" fill="none" stroke="#111827" stroke-width="7" stroke-linecap="round" stroke-linejoin="round"/>
  <path d="M51 97V82c0-9 7-16 16-16s16 7 16 16v15" fill="none" stroke="#f8fafc" stroke-width="6" stroke-linecap="round"/>
  <path d="M31 42h8M31 56h8M31 70h8M31 84h8" stroke="#99f6e4" stroke-width="4" stroke-linecap="round"/>
</svg>
